Coordinates
version=1
nRows=7
nColumns=40
inDegrees=yes

Units are S.I. units (second, meters, Newtons, ...)
Angles are in degrees.

endheader
time	pelvis_tilt	pelvis_list	pelvis_rotation	pelvis_tx	pelvis_ty	pelvis_tz	hip_flexion_r	hip_adduction_r	hip_rotation_r	knee_angle_r	knee_angle_r_beta	ankle_angle_r	subtalar_angle_r	mtp_angle_r	hip_flexion_l	hip_adduction_l	hip_rotation_l	knee_angle_l	knee_angle_l_beta	ankle_angle_l	subtalar_angle_l	mtp_angle_l	lumbar_extension	lumbar_bending	lumbar_rotation	arm_flex_r	arm_add_r	arm_rot_r	elbow_flex_r	pro_sup_r	wrist_flex_r	wrist_dev_r	arm_flex_l	arm_add_l	arm_rot_l	elbow_flex_l	pro_sup_l	wrist_flex_l	wrist_dev_l
     17.42750000	     -3.26699016	     -5.08486351	      5.90485346	      1.03925681	      0.93191112	      0.51814272	      9.95927252	      4.84934576	    -17.47760272	     14.08458907	     14.08458907	      9.84792496	     -0.40273090	     -4.75047158	     32.95226904	    -11.01582552	     -0.01853048	     40.67356152	     40.67356152	     10.39327146	    -17.37643006	     13.59643449	    -11.37509678	      5.34468245	      1.88013168	     23.17757669	    -17.64596786	      0.11329574	     68.45688993	     44.86248828	      0.00000000	      0.00000000	      0.37586207	     -9.37685829	     -5.80647800	     31.39774358	     46.20345185	      0.00000000	      0.00000000
     17.44100000	     -3.32744424	     -5.12659968	      6.16043045	      1.03864994	      0.93185100	      0.51808784	      9.47843901	      4.89599146	    -18.08220280	     13.71446577	     13.71446577	     10.06594937	      0.39542267	     -4.88272395	     32.78946629	    -10.69371802	      0.02319957	     37.07397945	     37.07397945	     10.35882209	    -16.07877064	     13.29382623	    -11.38003590	      5.46591025	      1.86240573	     24.35851993	    -17.36897272	      0.03354874	     69.68798300	     44.83409931	      0.00000000	      0.00000000	     -0.12912737	     -9.16162837	     -5.73028502	     30.95136947	     46.18300218	      0.00000000	      0.00000000
     17.45450000	     -3.29505266	     -5.29833515	      6.39694388	      1.03818374	      0.93166947	      0.51789011	      8.93513534	      5.02151588	    -19.06223640	     13.45529507	     13.45529507	     10.48233198	      1.87930777	     -4.79099579	     32.42771680	    -10.57271677	      0.02675954	     33.50002631	     33.50002631	      8.94452472	    -14.84605132	      9.49568532	    -11.46441292	      5.79714732	      2.23544062	     25.04809577	    -17.45738127	     -0.24834353	     71.82593149	     44.83099492	      0.00000000	      0.00000000	     -0.26883863	     -8.86092048	     -5.36735494	     30.13037314	     46.11229905	      0.00000000	      0.00000000
     17.46800000	     -3.36006157	     -5.36403747	      6.54140734	      1.03766221	      0.93141822	      0.51767053	      8.53025669	      5.12336607	    -19.28477068	     13.20626674	     13.20626674	     10.69240041	      2.18380593	     -4.88413980	     32.32044671	    -10.36034175	      0.05252756	     30.69029725	     30.69029725	      9.06771068	    -13.12199603	      9.76409495	    -11.40140596	      5.94513602	      2.40427924	     26.21946447	    -17.25277137	     -0.32558102	     72.48252649	     44.82112651	      0.00000000	      0.00000000	     -0.71792669	     -8.60034839	     -5.26807014	     29.90336648	     46.08899734	      0.00000000	      0.00000000
     17.48150000	     -3.28251565	     -5.49913195	      6.65914048	      1.03733862	      0.93131254	      0.51737996	      7.91383316	      5.31439929	    -19.63860917	     12.86381021	     12.86381021	     10.92636349	      2.81261140	     -4.98638208	     32.15348189	    -10.32281460	     -0.05977691	     28.44056283	     28.44056283	      9.22517924	    -11.30040335	      9.89793372	    -11.47681000	      6.20193774	      2.47027717	     27.41742604	    -16.89480942	     -0.35357877	     73.21072371	     44.80916043	      0.00000000	      0.00000000	     -1.21983219	     -8.39743742	     -5.11823937	     29.64278843	     46.05671069	      0.00000000	      0.00000000
     17.49500000	     -3.22866522	     -5.62878733	      6.74607911	      1.03707574	      0.93118040	      0.51693914	      7.30545319	      5.49509911	    -19.96870991	     12.49822874	     12.49822874	     11.15140622	      3.51322504	     -5.05290333	     32.10596439	    -10.30920172	     -0.21606271	     26.77897258	     26.77897258	      9.36391625	     -9.73592493	      9.96690769	    -11.51998089	      6.44936531	      2.56676450	     28.57446429	    -16.58513760	     -0.35423596	     73.79244284	     44.80279727	      0.00000000	      0.00000000	     -1.69546639	     -8.15613630	     -4.90663724	     29.46292455	     46.01473216	      0.00000000	      0.00000000
     17.50850000	     -3.31327874	     -5.79075281	      6.76257772	      1.03676101	      0.93076166	      0.51635907	      6.97861615	      5.67214372	    -20.02550718	     12.37007829	     12.37007829	     11.40781616	      3.71995417	     -5.13820287	     32.30235851	    -10.26618444	     -0.13569768	     25.70018418	     25.70018418	      9.38478518	     -9.02846327	     10.08433560	    -11.32733606	      6.72848205	      2.92592493	     29.61139244	    -16.56040471	     -0.43180818	     74.16127037	     44.79996223	      0.00000000	      0.00000000	     -2.03953108	     -7.83268360	     -4.80834095	     29.37412124	     45.99298010	      0.00000000	      0.00000000
